<svg width="250" height="77" viewBox="0 0 250 77" fill="none" xmlns="http://www.w3.org/2000/svg">
<path d="M149.062 62V30H157.75V42.5H169.25V30H177.938V62H169.25V49.5H157.75V62H149.062ZM201.88 30H210.568V50.5C210.568 52.9375 209.984 55.0469 208.818 56.8281C207.661 58.599 206.047 59.9687 203.974 60.9375C201.901 61.8958 199.495 62.375 196.755 62.375C193.995 62.375 191.578 61.8958 189.505 60.9375C187.432 59.9687 185.818 58.599 184.661 56.8281C183.515 55.0469 182.943 52.9375 182.943 50.5V30H191.63V49.75C191.63 50.7396 191.849 51.625 192.286 52.4062C192.724 53.1771 193.328 53.7812 194.099 54.2187C194.88 54.6562 195.765 54.875 196.755 54.875C197.755 54.875 198.64 54.6562 199.411 54.2187C200.182 53.7812 200.786 53.1771 201.224 52.4062C201.661 51.625 201.88 50.7396 201.88 49.75V30ZM215.576 62V30H229.451C231.889 30 233.936 30.3281 235.592 30.9844C237.259 31.6406 238.514 32.5677 239.358 33.7656C240.212 34.9635 240.639 36.375 240.639 38C240.639 39.1771 240.378 40.25 239.858 41.2187C239.347 42.1875 238.628 43 237.701 43.6562C236.774 44.3021 235.691 44.75 234.451 45V45.3125C235.826 45.3646 237.076 45.7135 238.201 46.3594C239.326 46.9948 240.222 47.875 240.889 49C241.556 50.1146 241.889 51.4271 241.889 52.9375C241.889 54.6875 241.431 56.2448 240.514 57.6094C239.608 58.974 238.316 60.0469 236.639 60.8281C234.962 61.6094 232.962 62 230.639 62H215.576ZM224.264 55.0625H228.326C229.785 55.0625 230.878 54.7917 231.608 54.25C232.337 53.6979 232.701 52.8854 232.701 51.8125C232.701 51.0625 232.53 50.4271 232.186 49.9062C231.842 49.3854 231.352 48.9896 230.717 48.7187C230.092 48.4479 229.337 48.3125 228.451 48.3125H224.264V55.0625ZM224.264 42.9375H227.826C228.587 42.9375 229.259 42.8177 229.842 42.5781C230.425 42.3385 230.878 41.9948 231.201 41.5469C231.535 41.0885 231.701 40.5312 231.701 39.875C231.701 38.8854 231.347 38.1302 230.639 37.6094C229.931 37.0781 229.035 36.8125 227.951 36.8125H224.264V42.9375Z" fill="#1C2431"/>
<rect x="149" y="15" width="93" height="7" fill="#FF0000"/>
<path d="M36.5109 30C36.3897 28.4848 35.8215 27.303 34.8064 26.4545C33.8064 25.6061 32.2836 25.1818 30.2382 25.1818C28.9351 25.1818 27.867 25.3409 27.0336 25.6591C26.2155 25.9621 25.6094 26.3788 25.2155 26.9091C24.8215 27.4394 24.617 28.0455 24.6018 28.7273C24.5715 29.2879 24.67 29.7955 24.8973 30.25C25.1397 30.6894 25.5185 31.0909 26.0336 31.4545C26.5488 31.803 27.2079 32.1212 28.0109 32.4091C28.8139 32.697 29.7685 32.9545 30.8745 33.1818L34.6927 34C37.2685 34.5455 39.473 35.2652 41.3064 36.1591C43.1397 37.053 44.6397 38.1061 45.8064 39.3182C46.973 40.5152 47.8291 41.8636 48.3745 43.3636C48.9352 44.8636 49.223 46.5 49.2382 48.2727C49.223 51.3333 48.4579 53.9242 46.9427 56.0455C45.4276 58.1667 43.2609 59.7803 40.4427 60.8864C37.6397 61.9924 34.2685 62.5455 30.3291 62.5455C26.2836 62.5455 22.7533 61.947 19.7382 60.75C16.7382 59.553 14.4048 57.7121 12.7382 55.2273C11.0867 52.7273 10.2533 49.5303 10.2382 45.6364H22.2382C22.3139 47.0606 22.67 48.2576 23.3064 49.2273C23.9427 50.197 24.8367 50.9318 25.9882 51.4318C27.1548 51.9318 28.5412 52.1818 30.1473 52.1818C31.4958 52.1818 32.6245 52.0152 33.5336 51.6818C34.4427 51.3485 35.1321 50.8864 35.6018 50.2955C36.0715 49.7045 36.3139 49.0303 36.3291 48.2727C36.3139 47.5606 36.0791 46.9394 35.6245 46.4091C35.1852 45.8636 34.4579 45.3788 33.4427 44.9545C32.4276 44.5152 31.0564 44.1061 29.3291 43.7273L24.6927 42.7273C20.5715 41.8333 17.3215 40.3409 14.9427 38.25C12.5791 36.1439 11.4048 33.2727 11.42 29.6364C11.4048 26.6818 12.1927 24.0985 13.7836 21.8864C15.3897 19.6591 17.6094 17.9242 20.4427 16.6818C23.2912 15.4394 26.5564 14.8182 30.2382 14.8182C33.9958 14.8182 37.2458 15.447 39.9882 16.7045C42.7306 17.9621 44.8442 19.7348 46.3291 22.0227C47.8291 24.2955 48.5867 26.9545 48.6018 30H36.5109ZM82.3523 30.8182C82.1553 30.0152 81.8447 29.3106 81.4205 28.7045C80.9962 28.0833 80.4659 27.5606 79.8295 27.1364C79.2083 26.697 78.4811 26.3712 77.6477 26.1591C76.8295 25.9318 75.928 25.8182 74.9432 25.8182C72.822 25.8182 71.0114 26.3258 69.5114 27.3409C68.0265 28.3561 66.8902 29.8182 66.1023 31.7273C65.3295 33.6364 64.9432 35.9394 64.9432 38.6364C64.9432 41.3636 65.3144 43.697 66.0568 45.6364C66.7992 47.5758 67.9053 49.0606 69.375 50.0909C70.8447 51.1212 72.6705 51.6364 74.8523 51.6364C76.7765 51.6364 78.375 51.3561 79.6477 50.7955C80.9356 50.2348 81.8977 49.4394 82.5341 48.4091C83.1705 47.3788 83.4886 46.1667 83.4886 44.7727L85.6705 45H75.0341V36H95.6705V42.4545C95.6705 46.697 94.7689 50.3258 92.9659 53.3409C91.178 56.3409 88.7083 58.6439 85.5568 60.25C82.4205 61.8409 78.822 62.6364 74.7614 62.6364C70.2311 62.6364 66.2538 61.6742 62.8295 59.75C59.4053 57.8258 56.7311 55.0833 54.8068 51.5227C52.8977 47.9621 51.9432 43.7273 51.9432 38.8182C51.9432 34.9697 52.5265 31.5606 53.6932 28.5909C54.875 25.6212 56.5114 23.1136 58.6023 21.0682C60.6932 19.0076 63.1098 17.4545 65.8523 16.4091C68.5947 15.3485 71.5341 14.8182 74.6705 14.8182C77.428 14.8182 79.9886 15.2121 82.3523 16C84.7311 16.7727 86.8295 17.8788 88.6477 19.3182C90.4811 20.7424 91.9583 22.4318 93.0795 24.3864C94.2008 26.3409 94.8826 28.4848 95.125 30.8182H82.3523ZM117.552 62H99.6425V15.4545H117.37C122.158 15.4545 126.294 16.3864 129.779 18.25C133.279 20.0985 135.976 22.7651 137.87 26.25C139.779 29.7197 140.733 33.8788 140.733 38.7273C140.733 43.5758 139.786 47.7424 137.893 51.2273C135.999 54.697 133.317 57.3636 129.847 59.2273C126.377 61.0758 122.279 62 117.552 62ZM112.279 51.2727H117.097C119.4 51.2727 121.362 50.9015 122.983 50.1591C124.62 49.4167 125.862 48.1364 126.711 46.3182C127.574 44.5 128.006 41.9697 128.006 38.7273C128.006 35.4848 127.567 32.9545 126.688 31.1364C125.824 29.3182 124.552 28.0379 122.87 27.2955C121.203 26.553 119.158 26.1818 116.733 26.1818H112.279V51.2727Z" fill="#1C2431"/>
</svg>
